<?xml version="1.0" encoding="UTF-8"?>
<svg id="Layer_1" xmlns="http://www.w3.org/2000/svg" width="1894.9" height="710.3" version="1.1" viewBox="0 0 1894.9 710.3">
  <!-- Generator: Adobe Illustrator 29.7.1, SVG Export Plug-In . SVG Version: 2.1.1 Build 8)  -->
  <defs>
    <style>
      .st0 {
        fill: #d62027;
      }
    </style>
  </defs>
  <path class="st0" d="M108.1,598.2c-17.8-23.4-32.8-48.1-45-74.3-12.2-26.2-21.5-53.5-27.8-81.9-6.4-28.4-9.5-57.4-9.5-86.9,0-59.4,12.4-115.7,37.3-168.8,24.9-53.1,59.9-98.7,105.1-136.8l35.1,41.1c-39.1,33.5-69.3,73.1-90.7,118.9-21.3,45.7-32,94.2-32,145.5s10.7,99.9,32,145.9c21.3,46,51.5,85.5,90.7,118.5l-35.1,41.9c-22.4-18.8-42.4-39.9-60.2-63.2Z"/>
  <path class="st0" d="M1419.2,619.6c39.1-33,69.3-72.5,90.7-118.5,21.3-46,32-94.6,32-145.9s-10.7-99.8-32-145.5c-21.3-45.7-51.6-85.3-90.7-118.9l35-41.1c45.2,38.1,80.3,83.7,105.1,136.8,24.9,53.1,37.3,109.3,37.3,168.8s-3.2,58.4-9.5,86.9c-6.4,28.5-15.6,55.8-27.8,81.9-12.2,26.2-27.2,50.9-45,74.3-17.8,23.4-37.8,44.4-60.2,63.2l-35-41.9Z"/>
  <g>
    <path class="st0" d="M511.5,327.5c0,98.6-58.4,165.5-153.8,165.5s-153.8-66.8-153.8-165.5,58.4-165.5,153.8-165.5,153.8,66.8,153.8,165.5ZM357.7,484.6c39.7,0,62.6-55.6,62.6-157s-22.9-156.1-62.6-156.1-62.2,55.2-62.2,156.1,22,157,62.2,157Z"/>
    <path class="st0" d="M817.1,167.2c-16.8,21.5-18.7,93.9-18.7,237.9v84.6h-69.2l-153.8-295.4c.9,117.3,39.7,251.9,79,295.4h-118.7c22.4-21.5,29.9-51.4,29.9-187v-77.6c0-24.3-.5-51.4-13.1-58h104.2l130.4,244c0-97.2-15-205.6-54.2-244h84.1Z"/>
    <path class="st0" d="M1008.2,300.4c17.3-36.9,26.2-66.8,26.2-89.7s-6.1-32.7-16.4-43.5h99.6c-13.1,4.7-63.6,61.2-106.1,149.6v115.9c0,24.3,0,51.4,13.5,57h-108c12.1-7.5,13.5-32.7,13.5-57v-115.9l-54.2-95.3c-13.6-22.9-28.5-47.7-44.4-54.2h122.4c-.9,3.3-1.4,5.6-1.4,8.9,0,10.3,6.5,26.6,16.4,46.3l38.8,78Z"/>
    <path class="st0" d="M1297,489.7c1.4-2.3,1.9-5.6,1.9-8.9,0-12.6-8.9-28.5-19.2-48.1l-40.2-73.8c-19.6,34.6-27.1,62.6-27.1,85.5s5.1,33.6,13.1,45.3h-105.6c13.6-4.7,64.5-66.8,113.6-142.5l-66.4-122c-13.1-24.3-28-51.4-43.9-58h122.9c-.9,2.3-1.4,5.6-1.4,8.4,0,12.2,8.4,29.9,19.2,49.5l32.7,59.8c16.8-31.8,23.4-57,23.4-77.6s-4.2-29-11.2-40.2h99.5c-13.1,5.6-58.9,59.4-105.6,130.4l73.4,135.1c12.6,24.3,27.6,51.4,44.4,57h-123.4Z"/>
    <g>
      <path class="st0" d="M292.4,553.4c0-13.8,18.4-23.8,44.6-23.8s22.2,1.7,29.9,5.1v11.2h-3.4c-3.6-5.6-14.2-8.1-26.4-8.1-18.6,0-31,6.6-31,15.7s11.4,15.7,31,15.7,23.9-3.4,29.9-8.5l1.3,11.7c-9,3.2-19.2,4.9-31.1,4.9-26.1,0-44.6-10-44.6-23.8Z"/>
      <path class="st0" d="M492.7,553.4c0-14,17.4-23.8,41.9-23.8s41.9,9.8,41.9,23.8-17.4,23.8-41.9,23.8-41.9-9.8-41.9-23.8ZM563,553.1c0-9-10.1-15.4-27.1-15.4s-29.6,6.4-29.6,15.9,10,15.5,27,15.5,29.7-6.4,29.7-15.9Z"/>
      <path class="st0" d="M709.4,539.6v11.9h43.2v8.1h-43.2v15.7h-12.2v-43.9h63.6v8.1h-51.3Z"/>
      <path class="st0" d="M902.9,539.6v11.9h43.2v8.1h-43.2v15.7h-12.2v-43.9h63.6v8.1h-51.3Z"/>
      <path class="st0" d="M1077.8,531.4h64.8v8.1h-52.6v9.4h43.8v7.5h-43.8v10.7h52.6v8.1h-64.8v-43.9Z"/>
      <path class="st0" d="M1271.3,531.4h64.8v8.1h-52.6v9.4h43.8v7.5h-43.8v10.7h52.6v8.1h-64.8v-43.9Z"/>
    </g>
  </g>
  <g>
    <path class="st0" d="M1637.9,236.4h-25.1V90.3h35.2c28.1,0,42.5,11.9,42.5,43.1s-9.1,33-17.6,36.8l21.3,66.2h-25.5l-17.8-60.5c-3.2.4-8.5.6-12.9.6v59.9ZM1637.9,155.8h8.9c13.6,0,18.6-5.1,18.6-22.5s-5.1-22.5-18.6-22.5h-8.9v44.9Z"/>
    <path class="st0" d="M1708.4,236.4V90.3h67.2v21.9h-42.1v37.6h32.4v21.9h-32.4v42.9h44.9v21.9h-70Z"/>
    <path class="st0" d="M1792.7,90.3h37.2c25.9,0,39.7,14.2,39.7,44.1v57.9c0,30-13.8,44.1-39.7,44.1h-37.2V90.3ZM1817.7,215.7h8.7c13.4,0,18-5.1,18-20.4v-63.9c0-15.4-4.7-20.4-18-20.4h-8.7v104.8Z"/>
  </g>
</svg>